<svg width="46" height="46" viewBox="0 0 46 46" fill="none" xmlns="http://www.w3.org/2000/svg">
<path d="M23.0888 32.4617C28.2652 32.4617 32.4616 28.2652 32.4616 23.0889C32.4616 17.9124 28.2652 13.7161 23.0888 13.7161C17.9123 13.7161 13.716 17.9124 13.716 23.0889C13.716 28.2652 17.9123 32.4617 23.0888 32.4617Z" stroke="white" stroke-width="3" stroke-linecap="round" stroke-linejoin="round"/>
<path d="M2 32.4616V13.716C2 7.24544 7.24544 2 13.716 2H32.4616C38.9321 2 44.1776 7.24544 44.1776 13.716V32.4616C44.1776 38.9321 38.9321 44.1776 32.4616 44.1776H13.716C7.24544 44.1776 2 38.9321 2 32.4616Z" stroke="white" stroke-width="3"/>
<path d="M35.9764 10.2245L35.9998 10.1985" stroke="white" stroke-width="3" stroke-linecap="round" stroke-linejoin="round"/>
</svg>
