<svg width="14" height="25" viewBox="0 0 14 25" fill="none" xmlns="http://www.w3.org/2000/svg">
<mask id="path-1-inside-1_26_28" fill="white">
<path d="M0 18.0415L6.95851 11.083L13.917 18.0415L6.95851 25L0 18.0415Z"/>
</mask>
<path d="M6.95851 25L5.54429 26.4142L6.95851 27.8284L8.37272 26.4142L6.95851 25ZM12.5028 16.6273L5.54429 23.5858L8.37272 26.4142L15.3312 19.4557L12.5028 16.6273ZM8.37272 23.5858L1.41421 16.6273L-1.41421 19.4557L5.54429 26.4142L8.37272 23.5858Z" fill="#595959" mask="url(#path-1-inside-1_26_28)"/>
<mask id="path-3-inside-2_26_28" fill="white">
<path d="M0 12.5818L6.95851 5.62333L13.917 12.5818L6.95851 19.5403L0 12.5818Z"/>
</mask>
<path d="M6.95851 19.5403L5.54429 20.9546L6.95851 22.3688L8.37272 20.9546L6.95851 19.5403ZM12.5028 11.1676L5.54429 18.1261L8.37272 20.9546L15.3312 13.996L12.5028 11.1676ZM8.37272 18.1261L1.41421 11.1676L-1.41421 13.996L5.54429 20.9546L8.37272 18.1261Z" fill="#595959" mask="url(#path-3-inside-2_26_28)"/>
<mask id="path-5-inside-3_26_28" fill="white">
<path d="M0 6.95851L6.95851 4.74232e-06L13.917 6.95851L6.95851 13.917L0 6.95851Z"/>
</mask>
<path d="M6.95851 13.917L5.54429 15.3312L6.95851 16.7454L8.37272 15.3312L6.95851 13.917ZM12.5028 5.5443L5.54429 12.5028L8.37272 15.3312L15.3312 8.37272L12.5028 5.5443ZM8.37272 12.5028L1.41421 5.5443L-1.41421 8.37272L5.54429 15.3312L8.37272 12.5028Z" fill="#595959" mask="url(#path-5-inside-3_26_28)"/>
</svg>
